<svg xmlns="http://www.w3.org/2000/svg" xmlns:xlink="http://www.w3.org/1999/xlink" fill="none" viewBox="0 0 200 200"><defs><path id="reuse-0" fill="#fff" d="M73.6 34c50.915 0 92.4 41.486 92.4 92.4V166h-39.6C75.485 166 34 124.515 34 73.6V34z"/></defs><rect width="200" height="200" fill="#0e2a3b" rx="32"/><mask id="b" width="132" height="132" x="34" y="34" maskUnits="userSpaceOnUse" style="mask-type:luminance"><use xlink:href="#reuse-0"/><mask id="a" width="132" height="132" x="34" y="34" maskUnits="userSpaceOnUse" style="mask-type:luminance"><use xlink:href="#reuse-0"/></mask><g mask="url(#a)"><path fill="#000" d="M44.092 51.616c14.423-15.538 33.742-23.801 57.951-24.773q3.516-.147 3.404-3.665a2.5 2.5 0 0 0-.169-.753c-.74-1.88-2.128-2.782-4.152-2.711-23.694.915-43.235 8.629-58.615 23.122-25.425 23.937-36.088 63.019-21.073 95.914.804 1.784 2.105 2.271 3.901 1.478.171-.085.345-.163.53-.253 1.76-.786 2.332-2.09 1.713-3.924-10.495-31.074-5.878-60.323 16.51-84.435M181.055 86.87a3.074 3.074 0 0 1 3.4 1.94q1.141 3.078-1.651 4.412c-5.48 2.605-13.499.778-17.867-2.706-2.692-2.162-4.916-5.26-6.671-9.314-13.529-31.14-48.937-45.444-80.331-33.036-30.837 12.184-46.893 46.725-35.842 78.436q2.259 6.42 7.17 16.461a3.015 3.015 0 0 1-1.099 3.882l-.607.394c-1.847 1.177-3.34.822-4.478-1.049q-16.23-26.763-10.211-54.847C43.29 42.83 99.874 20.683 140.798 48.726c11.036 7.567 19.452 17.979 25.246 31.252 2.881 6.639 8.489 7.984 15.011 6.893m-51.921-54.693a4 4 0 0 1-.411-.198 3.5 3.5 0 0 1-1.316-4.766q1.748-3.13 6.663-.975 2.368 1.037 4.612 2.148c20.333 10.158 34.568 25.523 42.702 46.11a2.897 2.897 0 0 1-1.481 3.698l-.645.299a1 1 0 0 0-.133.061 3.564 3.564 0 0 1-4.662-1.898c-8.751-20.924-24.211-35.922-45.329-44.48M68.191 74.166c-14.19 15.624-16.814 33.402-7.89 53.324 7.755 17.268 18.115 31.594 31.082 43.002 5.834 5.128 12.537 10.16 20.098 15.107a2.7 2.7 0 0 1 1.136 1.689c.343 1.638.096 2.732-.727 3.276-1.864 1.27-3.714 1.343-5.559.206q-26.955-16.37-44.486-44.422c-6.531-10.436-10.871-20.427-13.032-29.983-4.92-21.8 6.715-46.587 26.61-56.818 18.999-9.769 37.487-8.97 55.453 2.386a37.7 37.7 0 0 1 9.943 9.166 2.86 2.86 0 0 1-.157 3.654l-.442.47c-1.484 1.63-3.029 1.675-4.611.133-10.504-10.307-22.011-15.333-34.509-15.09q-20.635.408-32.909 13.9M99 76.712c-3.596.183-6.99 1.697-10.523 2.131a2.78 2.78 0 0 1-3.053-2.253l-.075-.522c-.48-2.546.539-4.155 3.043-4.798q25.094-6.57 40.698 11.071a30.7 30.7 0 0 1 5.34 8.476c8.794 20.795 24.698 30.928 47.706 30.407a2.894 2.894 0 0 1 2.92 3.395l-.23 1.371a3.12 3.12 0 0 1-3.056 2.586c-26.426.128-44.666-11.851-54.71-35.933-4.42-10.621-17.379-16.492-28.06-15.93m35.35 101.872q2.079.904 2.563 3.137c.299 1.371-.367 2.522-2.002 3.44a3.42 3.42 0 0 1-3.008.175c-30.321-12.662-56.613-38.9-66.303-69.895-1.876-6.002-1.776-12.623.308-19.846.654-2.3 2.152-3.186 4.484-2.647l.677.154c.043.006.08.023.123.03a2.64 2.64 0 0 1 1.844 3.252q-3.07 11.12 1.148 21.407c11.367 27.826 32.527 48.757 60.166 60.793m-52.596-66.638c-5.21-15.141 9.732-29.601 25.011-25.144 5.932 1.72 10.238 5.56 12.913 11.508.777 1.716.411 3.142-1.114 4.275l-.777.581c-1.524 1.118-2.813.894-3.854-.692-3.131-4.747-5.754-8.838-12.092-9.329-6.123-.49-11.765 3.91-13.233 9.858-1.172 4.701.897 9.378 2.978 13.553 13.526 27.03 33.589 41.954 61.415 51.081.732.25 1.374.726 1.822 1.351 1.119 1.547 1.35 2.748.679 3.594-1.298 1.658-2.908 2.227-4.842 1.718-30.865-8.167-58.624-32.497-68.906-62.354m85.087 41.391a3.18 3.18 0 0 1 1.718.84c2.173 2.047 1.974 4.005-.607 5.871a3.74 3.74 0 0 1-2.842.645c-29.872-5.4-56.793-24.251-67.077-53.129-.544-1.55-.35-2.993.594-4.335q.548-.778 1.322-.855c2.303-.239 3.842.587 4.608 2.472 10.74 26.304 34.276 44.448 62.284 48.491m13.391-48.923a17.3 17.3 0 0 1 3.806-.094q2.46.254 3.416 2.51c.8 1.872-.722 3.328-4.575 4.364a18.6 18.6 0 0 1-5.253.636c-13.788-.218-29.091-8.642-33.762-22.635a3.4 3.4 0 0 1-.152-.713 3.46 3.46 0 0 1 3.058-3.818c.753-.09 1.59.166 2.505.753.615.392 1.152 1.02 1.606 1.896 5.488 10.666 16.971 18.755 29.351 17.101M166.503 136.6c3.277.671 6.465 1.063 9.555 1.17 2.034.074 3.16 1.129 3.389 3.151.043.401-.011.778-.18 1.123-.895 1.993-2.437 2.929-4.635 2.802-20.188-1.181-36.911-9.366-50.16-24.559q-2.099-2.421-.355-5.121.636-.978 1.895-1.472a2.53 2.53 0 0 1 2.735.66c10.689 11.59 21.344 18.876 37.756 22.246M57.005 162.814a3.386 3.386 0 0 1 4.788.23l18.182 19.981a3.4 3.4 0 0 1-.227 4.795l-.422.382a3.386 3.386 0 0 1-4.788-.229l-18.182-19.981a3.397 3.397 0 0 1 .227-4.795z"/></g></mask><g mask="url(#b)"><use xlink:href="#reuse-0"/></g></svg>