<svg width="8" height="15" viewBox="0 0 8 15" fill="none" xmlns="http://www.w3.org/2000/svg" aria-hidden="true">
<path d="M0 4.86374e-05H7.2V5.58755C7.2 5.86255 7.13438 6.11567 7.00313 6.34692C6.87188 6.57817 6.6875 6.76255 6.45 6.90005L3.8625 8.4563L4.40625 10.2H6.9L4.85625 11.6438L5.64375 14.175L3.6 12.6L1.55625 14.175L2.34375 11.6438L0.3 10.2H2.79375L3.3375 8.4563L0.73125 6.9188C0.49375 6.7813 0.3125 6.59692 0.1875 6.36567C0.0625 6.13442 0 5.87505 0 5.58755V4.86374e-05ZM1.125 1.12505V5.58755C1.125 5.66255 1.14062 5.7313 1.17188 5.7938C1.20312 5.8563 1.25 5.9063 1.3125 5.9438L3.0375 6.9563V1.12505H1.125ZM6.075 1.12505H4.1625V6.9563L5.8875 5.9438C5.95 5.9063 5.99688 5.8563 6.02813 5.7938C6.05938 5.7313 6.075 5.66255 6.075 5.58755V1.12505Z" fill="currentColor"/>
</svg>
